<svg xmlns="http://www.w3.org/2000/svg" width="1200" height="675" viewBox="0 0 1200 675"><rect width="1200" height="675" fill="#faf9f5"/><line x1="0" y1="36" x2="1200" y2="36" stroke="#14161f" stroke-opacity="0.065" stroke-width="1"/><line x1="0" y1="72" x2="1200" y2="72" stroke="#14161f" stroke-opacity="0.065" stroke-width="1"/><line x1="0" y1="108" x2="1200" y2="108" stroke="#14161f" stroke-opacity="0.065" stroke-width="1"/><line x1="0" y1="144" x2="1200" y2="144" stroke="#14161f" stroke-opacity="0.065" stroke-width="1"/><line x1="0" y1="180" x2="1200" y2="180" stroke="#14161f" stroke-opacity="0.065" stroke-width="1"/><line x1="0" y1="216" x2="1200" y2="216" stroke="#14161f" stroke-opacity="0.065" stroke-width="1"/><line x1="0" y1="252" x2="1200" y2="252" stroke="#14161f" stroke-opacity="0.065" stroke-width="1"/><line x1="0" y1="288" x2="1200" y2="288" stroke="#14161f" stroke-opacity="0.065" stroke-width="1"/><line x1="0" y1="324" x2="1200" y2="324" stroke="#14161f" stroke-opacity="0.065" stroke-width="1"/><line x1="0" y1="360" x2="1200" y2="360" stroke="#14161f" stroke-opacity="0.065" stroke-width="1"/><line x1="0" y1="396" x2="1200" y2="396" stroke="#14161f" stroke-opacity="0.065" stroke-width="1"/><line x1="0" y1="432" x2="1200" y2="432" stroke="#14161f" stroke-opacity="0.065" stroke-width="1"/><line x1="0" y1="468" x2="1200" y2="468" stroke="#14161f" stroke-opacity="0.065" stroke-width="1"/><line x1="0" y1="504" x2="1200" y2="504" stroke="#14161f" stroke-opacity="0.065" stroke-width="1"/><line x1="0" y1="540" x2="1200" y2="540" stroke="#14161f" stroke-opacity="0.065" stroke-width="1"/><line x1="0" y1="576" x2="1200" y2="576" stroke="#14161f" stroke-opacity="0.065" stroke-width="1"/><line x1="0" y1="612" x2="1200" y2="612" stroke="#14161f" stroke-opacity="0.065" stroke-width="1"/><line x1="0" y1="648" x2="1200" y2="648" stroke="#14161f" stroke-opacity="0.065" stroke-width="1"/><rect x="80" y="77" width="11" height="3" fill="#00c26e"/><text x="100" y="90" font-family="Consolas, Menlo, DejaVu Sans Mono, monospace" font-size="14" font-weight="700" fill="#6b7184" text-anchor="start" letter-spacing="2.5">ELEVEN CATEGORIES, ONE CATALOGUE</text><rect x="80" y="130" width="240" height="128" rx="12" fill="#ffffff" stroke="#c9c7ba"/><text x="100" y="174" font-family="Segoe UI, Helvetica Neue, Helvetica, Arial, sans-serif" font-size="20" font-weight="700" fill="#14161f" text-anchor="start">ai tools</text><text x="100" y="230" font-family="Consolas, Menlo, DejaVu Sans Mono, monospace" font-size="40" font-weight="700" fill="#2f6fdb" text-anchor="start">78</text><rect x="342" y="130" width="240" height="128" rx="12" fill="#ffffff" stroke="#c9c7ba"/><text x="362" y="174" font-family="Segoe UI, Helvetica Neue, Helvetica, Arial, sans-serif" font-size="20" font-weight="700" fill="#14161f" text-anchor="start">cloud</text><text x="362" y="230" font-family="Consolas, Menlo, DejaVu Sans Mono, monospace" font-size="40" font-weight="700" fill="#2f6fdb" text-anchor="start">33</text><rect x="604" y="130" width="240" height="128" rx="12" fill="#ffffff" stroke="#c9c7ba"/><text x="624" y="174" font-family="Segoe UI, Helvetica Neue, Helvetica, Arial, sans-serif" font-size="20" font-weight="700" fill="#14161f" text-anchor="start">education</text><text x="624" y="230" font-family="Consolas, Menlo, DejaVu Sans Mono, monospace" font-size="40" font-weight="700" fill="#2f6fdb" text-anchor="start">44</text><rect x="866" y="130" width="240" height="128" rx="12" fill="#ffffff" stroke="#c9c7ba"/><text x="886" y="174" font-family="Segoe UI, Helvetica Neue, Helvetica, Arial, sans-serif" font-size="20" font-weight="700" fill="#14161f" text-anchor="start">finance</text><text x="886" y="230" font-family="Consolas, Menlo, DejaVu Sans Mono, monospace" font-size="40" font-weight="700" fill="#2f6fdb" text-anchor="start">40</text><rect x="80" y="280" width="240" height="128" rx="12" fill="#ffffff" stroke="#c9c7ba"/><text x="100" y="324" font-family="Segoe UI, Helvetica Neue, Helvetica, Arial, sans-serif" font-size="20" font-weight="700" fill="#14161f" text-anchor="start">gaming</text><text x="100" y="380" font-family="Consolas, Menlo, DejaVu Sans Mono, monospace" font-size="40" font-weight="700" fill="#2f6fdb" text-anchor="start">39</text><rect x="342" y="280" width="240" height="128" rx="12" fill="#ffffff" stroke="#c9c7ba"/><text x="362" y="324" font-family="Segoe UI, Helvetica Neue, Helvetica, Arial, sans-serif" font-size="20" font-weight="700" fill="#14161f" text-anchor="start">health</text><text x="362" y="380" font-family="Consolas, Menlo, DejaVu Sans Mono, monospace" font-size="40" font-weight="700" fill="#2f6fdb" text-anchor="start">45</text><rect x="604" y="280" width="240" height="128" rx="12" fill="#ffffff" stroke="#c9c7ba"/><text x="624" y="324" font-family="Segoe UI, Helvetica Neue, Helvetica, Arial, sans-serif" font-size="20" font-weight="700" fill="#14161f" text-anchor="start">music</text><text x="624" y="380" font-family="Consolas, Menlo, DejaVu Sans Mono, monospace" font-size="40" font-weight="700" fill="#2f6fdb" text-anchor="start">39</text><rect x="866" y="280" width="240" height="128" rx="12" fill="#ffffff" stroke="#c9c7ba"/><text x="886" y="324" font-family="Segoe UI, Helvetica Neue, Helvetica, Arial, sans-serif" font-size="20" font-weight="700" fill="#14161f" text-anchor="start">other</text><text x="886" y="380" font-family="Consolas, Menlo, DejaVu Sans Mono, monospace" font-size="40" font-weight="700" fill="#2f6fdb" text-anchor="start">24</text><rect x="80" y="430" width="240" height="128" rx="12" fill="#ffffff" stroke="#c9c7ba"/><text x="100" y="474" font-family="Segoe UI, Helvetica Neue, Helvetica, Arial, sans-serif" font-size="20" font-weight="700" fill="#14161f" text-anchor="start">productivity</text><text x="100" y="530" font-family="Consolas, Menlo, DejaVu Sans Mono, monospace" font-size="40" font-weight="700" fill="#2f6fdb" text-anchor="start">80</text><rect x="342" y="430" width="240" height="128" rx="12" fill="#ffffff" stroke="#c9c7ba"/><text x="362" y="474" font-family="Segoe UI, Helvetica Neue, Helvetica, Arial, sans-serif" font-size="20" font-weight="700" fill="#14161f" text-anchor="start">security</text><text x="362" y="530" font-family="Consolas, Menlo, DejaVu Sans Mono, monospace" font-size="40" font-weight="700" fill="#2f6fdb" text-anchor="start">37</text><rect x="604" y="430" width="240" height="128" rx="12" fill="#ffffff" stroke="#c9c7ba"/><text x="624" y="474" font-family="Segoe UI, Helvetica Neue, Helvetica, Arial, sans-serif" font-size="20" font-weight="700" fill="#14161f" text-anchor="start">streaming</text><text x="624" y="530" font-family="Consolas, Menlo, DejaVu Sans Mono, monospace" font-size="40" font-weight="700" fill="#2f6fdb" text-anchor="start">50</text><text x="80" y="630" font-family="Segoe UI, Helvetica Neue, Helvetica, Arial, sans-serif" font-size="24" font-weight="600" fill="#5a6072" text-anchor="start">509 services. The number is the count in each category.</text></svg>