<svg xmlns="http://www.w3.org/2000/svg" width="1200" height="700" viewBox="0 0 1200 700"><rect width="1200" height="700" fill="#faf9f5"/><line x1="0" y1="36" x2="1200" y2="36" stroke="#14161f" stroke-opacity="0.065" stroke-width="1"/><line x1="0" y1="72" x2="1200" y2="72" stroke="#14161f" stroke-opacity="0.065" stroke-width="1"/><line x1="0" y1="108" x2="1200" y2="108" stroke="#14161f" stroke-opacity="0.065" stroke-width="1"/><line x1="0" y1="144" x2="1200" y2="144" stroke="#14161f" stroke-opacity="0.065" stroke-width="1"/><line x1="0" y1="180" x2="1200" y2="180" stroke="#14161f" stroke-opacity="0.065" stroke-width="1"/><line x1="0" y1="216" x2="1200" y2="216" stroke="#14161f" stroke-opacity="0.065" stroke-width="1"/><line x1="0" y1="252" x2="1200" y2="252" stroke="#14161f" stroke-opacity="0.065" stroke-width="1"/><line x1="0" y1="288" x2="1200" y2="288" stroke="#14161f" stroke-opacity="0.065" stroke-width="1"/><line x1="0" y1="324" x2="1200" y2="324" stroke="#14161f" stroke-opacity="0.065" stroke-width="1"/><line x1="0" y1="360" x2="1200" y2="360" stroke="#14161f" stroke-opacity="0.065" stroke-width="1"/><line x1="0" y1="396" x2="1200" y2="396" stroke="#14161f" stroke-opacity="0.065" stroke-width="1"/><line x1="0" y1="432" x2="1200" y2="432" stroke="#14161f" stroke-opacity="0.065" stroke-width="1"/><line x1="0" y1="468" x2="1200" y2="468" stroke="#14161f" stroke-opacity="0.065" stroke-width="1"/><line x1="0" y1="504" x2="1200" y2="504" stroke="#14161f" stroke-opacity="0.065" stroke-width="1"/><line x1="0" y1="540" x2="1200" y2="540" stroke="#14161f" stroke-opacity="0.065" stroke-width="1"/><line x1="0" y1="576" x2="1200" y2="576" stroke="#14161f" stroke-opacity="0.065" stroke-width="1"/><line x1="0" y1="612" x2="1200" y2="612" stroke="#14161f" stroke-opacity="0.065" stroke-width="1"/><line x1="0" y1="648" x2="1200" y2="648" stroke="#14161f" stroke-opacity="0.065" stroke-width="1"/><line x1="0" y1="684" x2="1200" y2="684" stroke="#14161f" stroke-opacity="0.065" stroke-width="1"/><rect x="80" y="77" width="11" height="3" fill="#00c26e"/><text x="100" y="90" font-family="Consolas, Menlo, DejaVu Sans Mono, monospace" font-size="14" font-weight="700" fill="#6b7184" text-anchor="start" letter-spacing="2.5">MONTHLY PRICES OF 475 SERVICES WITH A LISTED PRICE</text><text x="80" y="174" font-family="Segoe UI, Helvetica Neue, Helvetica, Arial, sans-serif" font-size="22" font-weight="600" fill="#14161f" text-anchor="start">under $5</text><rect x="330" y="146" width="348" height="40" rx="6" fill="#2f6fdb" fill-opacity="0.55"/><text x="694" y="174" font-family="Consolas, Menlo, DejaVu Sans Mono, monospace" font-size="22" font-weight="700" fill="#14161f" text-anchor="start">73</text><text x="80" y="256" font-family="Segoe UI, Helvetica Neue, Helvetica, Arial, sans-serif" font-size="22" font-weight="600" fill="#14161f" text-anchor="start">$5 to $9.99</text><rect x="330" y="228" width="700" height="40" rx="6" fill="#2f6fdb" fill-opacity="0.63"/><text x="1046" y="256" font-family="Consolas, Menlo, DejaVu Sans Mono, monospace" font-size="22" font-weight="700" fill="#14161f" text-anchor="start">147</text><text x="80" y="338" font-family="Segoe UI, Helvetica Neue, Helvetica, Arial, sans-serif" font-size="22" font-weight="600" fill="#14161f" text-anchor="start">$10 to $14.99</text><rect x="330" y="310" width="519" height="40" rx="6" fill="#2f6fdb" fill-opacity="0.7100000000000001"/><text x="865" y="338" font-family="Consolas, Menlo, DejaVu Sans Mono, monospace" font-size="22" font-weight="700" fill="#14161f" text-anchor="start">109</text><text x="80" y="420" font-family="Segoe UI, Helvetica Neue, Helvetica, Arial, sans-serif" font-size="22" font-weight="600" fill="#14161f" text-anchor="start">$15 to $19.99</text><rect x="330" y="392" width="286" height="40" rx="6" fill="#2f6fdb" fill-opacity="0.79"/><text x="632" y="420" font-family="Consolas, Menlo, DejaVu Sans Mono, monospace" font-size="22" font-weight="700" fill="#14161f" text-anchor="start">60</text><text x="80" y="502" font-family="Segoe UI, Helvetica Neue, Helvetica, Arial, sans-serif" font-size="22" font-weight="600" fill="#14161f" text-anchor="start">$20 to $49.99</text><rect x="330" y="474" width="362" height="40" rx="6" fill="#2f6fdb" fill-opacity="0.8700000000000001"/><text x="708" y="502" font-family="Consolas, Menlo, DejaVu Sans Mono, monospace" font-size="22" font-weight="700" fill="#14161f" text-anchor="start">76</text><text x="80" y="584" font-family="Segoe UI, Helvetica Neue, Helvetica, Arial, sans-serif" font-size="22" font-weight="600" fill="#14161f" text-anchor="start">$50 and over</text><rect x="330" y="556" width="48" height="40" rx="6" fill="#2f6fdb" fill-opacity="0.9500000000000001"/><text x="394" y="584" font-family="Consolas, Menlo, DejaVu Sans Mono, monospace" font-size="22" font-weight="700" fill="#14161f" text-anchor="start">10</text><text x="80" y="660" font-family="Segoe UI, Helvetica Neue, Helvetica, Arial, sans-serif" font-size="22" font-weight="400" fill="#5a6072" text-anchor="start">Median $10, mean $13.90, from $0.99 to $150.</text></svg>