<svg xmlns="http://www.w3.org/2000/svg" width="1200" height="675" viewBox="0 0 1200 675"><rect width="1200" height="675" fill="#faf9f5"/><line x1="0" y1="36" x2="1200" y2="36" stroke="#14161f" stroke-opacity="0.065" stroke-width="1"/><line x1="0" y1="72" x2="1200" y2="72" stroke="#14161f" stroke-opacity="0.065" stroke-width="1"/><line x1="0" y1="108" x2="1200" y2="108" stroke="#14161f" stroke-opacity="0.065" stroke-width="1"/><line x1="0" y1="144" x2="1200" y2="144" stroke="#14161f" stroke-opacity="0.065" stroke-width="1"/><line x1="0" y1="180" x2="1200" y2="180" stroke="#14161f" stroke-opacity="0.065" stroke-width="1"/><line x1="0" y1="216" x2="1200" y2="216" stroke="#14161f" stroke-opacity="0.065" stroke-width="1"/><line x1="0" y1="252" x2="1200" y2="252" stroke="#14161f" stroke-opacity="0.065" stroke-width="1"/><line x1="0" y1="288" x2="1200" y2="288" stroke="#14161f" stroke-opacity="0.065" stroke-width="1"/><line x1="0" y1="324" x2="1200" y2="324" stroke="#14161f" stroke-opacity="0.065" stroke-width="1"/><line x1="0" y1="360" x2="1200" y2="360" stroke="#14161f" stroke-opacity="0.065" stroke-width="1"/><line x1="0" y1="396" x2="1200" y2="396" stroke="#14161f" stroke-opacity="0.065" stroke-width="1"/><line x1="0" y1="432" x2="1200" y2="432" stroke="#14161f" stroke-opacity="0.065" stroke-width="1"/><line x1="0" y1="468" x2="1200" y2="468" stroke="#14161f" stroke-opacity="0.065" stroke-width="1"/><line x1="0" y1="504" x2="1200" y2="504" stroke="#14161f" stroke-opacity="0.065" stroke-width="1"/><line x1="0" y1="540" x2="1200" y2="540" stroke="#14161f" stroke-opacity="0.065" stroke-width="1"/><line x1="0" y1="576" x2="1200" y2="576" stroke="#14161f" stroke-opacity="0.065" stroke-width="1"/><line x1="0" y1="612" x2="1200" y2="612" stroke="#14161f" stroke-opacity="0.065" stroke-width="1"/><line x1="0" y1="648" x2="1200" y2="648" stroke="#14161f" stroke-opacity="0.065" stroke-width="1"/><rect x="80" y="77" width="11" height="3" fill="#00c26e"/><text x="100" y="90" font-family="Consolas, Menlo, DejaVu Sans Mono, monospace" font-size="14" font-weight="700" fill="#6b7184" text-anchor="start" letter-spacing="2.5">WHAT A MONTH COSTS, ACROSS THE CATALOGUE</text><line x1="80" y1="520" x2="1120" y2="520" stroke="#14161f" stroke-width="3"/><rect x="90" y="420.8204210686695" width="100" height="99.1795789313305" rx="8" fill="#0a824f" fill-opacity="0.9"/><text x="140" y="560" font-family="Consolas, Menlo, DejaVu Sans Mono, monospace" font-size="18" font-weight="600" fill="#14161f" text-anchor="middle">$0.99</text><rect x="220" y="360.9939541424476" width="100" height="159.0060458575524" rx="8" fill="#0a824f" fill-opacity="0.9"/><text x="270" y="560" font-family="Consolas, Menlo, DejaVu Sans Mono, monospace" font-size="18" font-weight="600" fill="#14161f" text-anchor="middle">$2.99</text><rect x="350" y="326.0521385570472" width="100" height="193.94786144295279" rx="8" fill="#0a824f" fill-opacity="0.9"/><text x="400" y="560" font-family="Consolas, Menlo, DejaVu Sans Mono, monospace" font-size="18" font-weight="600" fill="#14161f" text-anchor="middle">$4.99</text><rect x="480" y="273.8592239162644" width="100" height="246.1407760837356" rx="8" fill="#0a824f" fill-opacity="0.9"/><text x="530" y="560" font-family="Consolas, Menlo, DejaVu Sans Mono, monospace" font-size="18" font-weight="600" fill="#14161f" text-anchor="middle">$9.99</text><rect x="610" y="241.61113669125575" width="100" height="278.38886330874425" rx="8" fill="#2f6fdb" fill-opacity="0.9"/><text x="660" y="560" font-family="Consolas, Menlo, DejaVu Sans Mono, monospace" font-size="18" font-weight="600" fill="#14161f" text-anchor="middle">$14.99</text><rect x="740" y="206.72321139076212" width="100" height="313.2767886092379" rx="8" fill="#2f6fdb" fill-opacity="0.9"/><text x="790" y="560" font-family="Consolas, Menlo, DejaVu Sans Mono, monospace" font-size="18" font-weight="600" fill="#14161f" text-anchor="middle">$22.99</text><rect x="870" y="133.835113110971" width="100" height="386.164886889029" rx="8" fill="#c63b49" fill-opacity="0.9"/><text x="920" y="560" font-family="Consolas, Menlo, DejaVu Sans Mono, monospace" font-size="18" font-weight="600" fill="#14161f" text-anchor="middle">$54.99</text><rect x="1000" y="48.513934033916485" width="100" height="471.4860659660835" rx="8" fill="#c63b49" fill-opacity="0.9"/><text x="1050" y="560" font-family="Consolas, Menlo, DejaVu Sans Mono, monospace" font-size="18" font-weight="600" fill="#14161f" text-anchor="middle">$150</text><text x="80" y="630" font-family="Segoe UI, Helvetica Neue, Helvetica, Arial, sans-serif" font-size="26" font-weight="600" fill="#5a6072" text-anchor="start">Median $10 a month. Half the catalogue costs that or less.</text></svg>